/* XPM */
static char * wmtempmon_master2_xpm[] = {
"93 122 81 1",
" 	c None",
".	c #0000FF",
"+	c #000000",
"@	c #202020",
"#	c #C7C7C7",
"$	c #007D71",
"%	c #20B6AE",
"&	c #004941",
"*	c #188A86",
"=	c #20B2AE",
"-	c #107D79",
";	c #0A3F00",
">	c #660000",
",	c #177700",
"'	c #27B500",
")	c #A50000",
"!	c #C90000",
"~	c #3FFF00",
"{	c #FF0000",
"]	c #E00000",
"^	c #440000",
"/	c #A80000",
"(	c #FF8200",
"_	c #542A00",
":	c #A85500",
"<	c #00FF0F",
"[	c #04FA0F",
"}	c #09F50F",
"|	c #0DF10F",
"1	c #12EC0E",
"2	c #16E80E",
"3	c #1BE30E",
"4	c #1FDF0D",
"5	c #24DA0D",
"6	c #28D60D",
"7	c #2DD10D",
"8	c #32CC0C",
"9	c #36C80C",
"0	c #3BC30C",
"a	c #3FBF0B",
"b	c #44BA0B",
"c	c #48B60B",
"d	c #4DB10B",
"e	c #51AD0A",
"f	c #56A80A",
"g	c #5BA30A",
"h	c #5F9F09",
"i	c #649A09",
"j	c #689609",
"k	c #6D9109",
"l	c #718D08",
"m	c #768808",
"n	c #7A8408",
"o	c #7F7F07",
"p	c #847A07",
"q	c #887607",
"r	c #8D7107",
"s	c #916D06",
"t	c #966806",
"u	c #9A6406",
"v	c #9F5F05",
"w	c #A35B05",
"x	c #A85605",
"y	c #AD5105",
"z	c #B14D04",
"A	c #B64804",
"B	c #BA4404",
"C	c #BF3F03",
"D	c #C33B03",
"E	c #C83603",
"F	c #CC3203",
"G	c #D12D02",
"H	c #D62802",
"I	c #DA2402",
"J	c #DF1F01",
"K	c #E31B01",
"L	c #E81601",
"M	c #EC1201",
"N	c #F10D00",
"O	c #F50900",
"P	c #FA0400",
"................................................................+............................",
"................................................................+............................",
"..++++++++++++++++++++++++++++++++++++++++++++++++++++++++++++..+............................",
"..+@@@@@@@@@@@@@@@@@@@@@@@@@@@@@@@@@@@@@@@@@@@@@@@@@@@@@@@@@@#..+............................",
"..+@@$%%%$@$%%%$@$&&&$@@&&&$@@@@@@&&&@@@@&&&@@@@&&&@@*=@$%$@@#..+............................",
"..+@@%@@@&@%@@@%@%@@@%@&@@@%@@@@@&@@@&@@&@@@&@@&@@@&@-=@%@&@@#..+............................",
"..+@@%@@@&@%@@@%@%@@@%@&@@@%@@@@@&@@@&@@&@@@&@@&@@@&@@@@%@&@@#..+............................",
"..+@@$&&&@@$%%%$@$&&&$@@&&&$@@@@@@&&&@@@@&&&@@@@&&&@@@@@$&@@@#..+............................",
"..+@@%@@@&@%@@@&@%@@@%@&@@@%@@@@@&@@@&@@&@@@&@@&@@@&@@@@%@&@@#..+............................",
"..+@@%@@@&@%@@@&@%@@@%@&@@@%@@@@@&@@@&@@&@@@&@@&@@@&@@@@%@&@@#..+............................",
"..+@@$%%%$@$&&&@@$%%%$@@&&&$@@@@@@&&&@@@@&&&@@@@&&&@@@@@$%$@@#..+............................",
"..+@@@@@@@@@@@@@@@@@@@@@@@@@@@@@@@@@@@@@@@@@@@@@@@@@@@@@@@@@@#..+............................",
"..+@@@@@@@@@@@@@@@@@@@@@@@@@@@@@@@@@@@@@@@@@@@@@@@@@@@@@@@@@@#..+............................",
"..############################################################..+............................",
"................................................................+............................",
"................................................................+............................",
"..++++++++++++++++++++++++++++++++++++++++++++++++++++++++++++..+............................",
"..+@@@@@@@@@@@@@@@@@@@@@@@@@@@@@@@@@@@@@@@@@@@@@@@@@@@@@@@@@@#..+............................",
"..+@@$%%%$@$%%%$@$&&&$@$%%%$@@@@@@&&&@@@@&&&@@@@&&&@@*=@$%$@@#..+............................",
"..+@@%@@@&@%@@@%@%@@@%@&@@@%@@@@@&@@@&@@&@@@&@@&@@@&@-=@%@&@@#..+............................",
"..+@@%@@@&@%@@@%@%@@@%@&@@@%@@@@@&@@@&@@&@@@&@@&@@@&@@@@%@&@@#..+............................",
"..+@@$&&&@@$%%%$@$&&&$@$%%%$@@@@@@&&&@@@@&&&@@@@&&&@@@@@$&@@@#..+............................",
"..+@@%@@@&@%@@@&@%@@@%@%@@@&@@@@@&@@@&@@&@@@&@@&@@@&@@@@%@&@@#..+............................",
"..+@@%@@@&@%@@@&@%@@@%@%@@@&@@@@@&@@@&@@&@@@&@@&@@@&@@@@%@&@@#..+............................",
"..+@@$%%%$@$&&&@@$%%%$@$%%%$@@@@@@&&&@@@@&&&@@@@&&&@@@@@$%$@@#..+............................",
"..+@@@@@@@@@@@@@@@@@@@@@@@@@@@@@@@@@@@@@@@@@@@@@@@@@@@@@@@@@@#..+............................",
"..+@@@@@@@@@@@@@@@@@@@@@@@@@@@@@@@@@@@@@@@@@@@@@@@@@@@@@@@@@@#..+............................",
"..############################################################..+............................",
"................................................................+............................",
"................................................................+............................",
"..++++++++++++++++++++++++++++++++++++++++++++++++++++++++++++..+............................",
"..+@@@@@@@@@@@@@@@@@@@@@@@@@@@@@@@@@@@@@@@@@@@@@@@@@@@@@@@@@@#..+............................",
"..+@@$%%%$@$%%%$@$&&&$@@&&&@@@@@@@&&&@@@@&&&@@@@&&&@@*=@$%$@@#..+............................",
"..+@@%@@@&@%@@@%@%@@@%@&@@@&@@@@@&@@@&@@&@@@&@@&@@@&@-=@%@&@@#..+............................",
"..+@@%@@@&@%@@@%@%@@@%@&@@@&@@@@@&@@@&@@&@@@&@@&@@@&@@@@%@&@@#..+............................",
"..+@@$&&&$@$%%%$@$&&&$@@&&&@@@@@@@&&&@@@@&&&@@@@&&&@@@@@$&@@@#..+............................",
"..+@@%@@@%@%@@@&@%@@@%@&@@@&@@@@@&@@@&@@&@@@&@@&@@@&@@@@%@&@@#..+............................",
"..+@@%@@@%@%@@@&@%@@@%@&@@@&@@@@@&@@@&@@&@@@&@@&@@@&@@@@%@&@@#..+............................",
"..+@@$%%%$@$&&&@@$%%%$@@&&&@@@@@@@&&&@@@@&&&@@@@&&&@@@@@$%$@@#..+............................",
"..+@@@@@@@@@@@@@@@@@@@@@@@@@@@@@@@@@@@@@@@@@@@@@@@@@@@@@@@@@@#..+............................",
"..+@@@@@@@@@@@@@@@@@@@@@@@@@@@@@@@@@@@@@@@@@@@@@@@@@@@@@@@@@@#..+............................",
"..############################################################..+............................",
"................................................................+............................",
"................................................................+............................",
"..++++++++++++++++++++++++++++++++++++++++++++++++++++++++++++..+............................",
"..+@@@@@@@@@@@@@@@@@@@@@@@@@@@@@@@@@@@@@@@@@@@@@@@@@@@@@@@@@@#..+............................",
"..+@@@&&&@@@&&&@@@&&&@@@&&&@@@@@@@&&&@@@@&&&@@@@&&&@@@@&&&@@@#..+............................",
"..+@@&@@@&@&@@@&@&@@@&@&@@@&@@@@@&@@@&@@&@@@&@@&@@@&@@&@@@&@@#..+............................",
"..+@@&@@@&@&@@@&@&@@@&@&@@@&@@@@@&@@@&@@&@@@&@@&@@@&@@&@@@&@@#..+............................",
"..+@@@&&&@@@&&&@@@&&&@@@&&&@@@@@@@&&&@@@@&&&@@@@&&&@@@@&&&@@@#..+............................",
"..+@@&@@@&@&@@@&@&@@@&@&@@@&@@@@@&@@@&@@&@@@&@@&@@@&@@&@@@&@@#..+............................",
"..+@@&@@@&@&@@@&@&@@@&@&@@@&@@@@@&@@@&@@&@@@&@@&@@@&@@&@@@&@@#..+............................",
"..+@@@&&&@@@&&&@@@&&&@@@&&&@@@@@@@&&&@@@@&&&@@@@&&&@@@@&&&@@@#..+............................",
"..+@@@@@@@@@@@@@@@@@@@@@@@@@@@@@@@@@@@@@@@@@@@@@@@@@@@@@@@@@@#..+............................",
"..+@@@@@@@@@@@@@@@@@@@@@@@@@@@@@@@@@@@@@@@@@@@@@@@@@@@@@@@@@@#..+............................",
"..############################################################..+............................",
"................................................................+............................",
"..+@@@@@@@@@@@@@@@@@@@@@@@@@@@@@@@@@@@@@@@@@@@@@@@@@@@@@@@@@@#..+............................",
"..+@@@@@@@@@@@@@@@@@@@@@@@@@@@@@@@@@@@@@@@@@@@@@@@@@@@@@@@@@@#..+............................",
"..+@@@@@@@@@@@@@@@@@@@@@@@@@@@@@@@@@@@@@@@@@@@@@@@@@@@@@@@@@@#..+............................",
"..+@@@@@@@@@@@@@@@@@@@@@@@@@@@@@@@@@@@@@@@@@@@@@@@@@@@@@@@@@@#..+............................",
"..+@@@@@@@@@@@@@@@@@@@@@@@@@@@@@@@@@@@@@@@@@@@@@@@@@@@@@@@@@@#..+............................",
"..############################################################..+............................",
"................................................................+............................",
"@@@@@@@@@@@@@@@@@@@@@@@@@@@@@@@@@@@@@@@@@@@@@@@@@@@;;;@@>>>@@@@@@.@@@@@@@@@@@@@@@@@@@@@@@@@..",
"@===@@&&&**===**===*=&&&=*===**===**===**===**===*;,',;>)!)>@&&&@.*=@$%$@*=@$%$@$&&&$@@===@..",
"=@@@=&@@@=&@@@=&@@@==@@@==@@@&=@@@&&@@@==@@@==@@@=;'~';>!{!>&@@@&.-=@%@&@-=@%@&@%@@@%@=@@@=..",
"=@@@=&@@@=&@@@=&@@@==@@@==@@@&=@@@&&@@@==@@@==@@@=;,',;>)!)>&@@@&.@@@%@&@@@@%@&@%@@@%@=@@@=..",
"*&&&*@&&&**===*@===**===*====**===*@&&&**===**===*@;;;@@>>>@@&&&@.@@@$&@@@@@$%$@$&&&$@*&&&*..",
"=@@@=&@@@==@@@&&@@@=&@@@=&@@@==@@@=&@@@==@@@=&@@@=..........&@@@&.@@@%@&@@@@%@&@%@@@%@=@@@=..",
"=@@@=&@@@==@@@&&@@@=&@@@=&@@@==@@@=&@@@==@@@=&@@@=.@=.@@....&@@@&.@@@%@&@@@@%@&@$%@%$@=@@@=..",
"@===@@&&&**===**===*@&&&**===**===*@&&&=*===**===*.*=.@@....@&&&@.@@@$%$@@@@@&@@@$%$@@@===@..",
"@]]]@@^^^//]]]//]]]/]^^^]/]]]//]]]//]]]//]]]//]]]/..........@^^^@./]@/]/@/]@/]/@.............",
"]@@@]^@@@]^@@@]^@@@]]@@@]]@@@^]@@@^^@@@]]@@@]]@@@]..........^@@@^./]@]@^@/]@]@^@.............",
"]@@@]^@@@]^@@@]^@@@]]@@@]]@@@^]@@@^^@@@]]@@@]]@@@]..........^@@@^.@@@]@^@@@@]@^@.............",
"/^^^/@^^^//]]]/@]]]//]]]/]]]]//]]]/@^^^//]]]//]]]/..........@^^^@.@@@/^@@@@@/]/@.............",
"]@@@]^@@@]]@@@^^@@@]^@@@]^@@@]]@@@]^@@@]]@@@]^@@@]..........^@@@^.@@@]@^@@@@]@^@.............",
"]@@@]^@@@]]@@@^^@@@]^@@@]^@@@]]@@@]^@@@]]@@@]^@@@].@].@@....^@@@^.@@@]@^@@@@]@^@.............",
"@]]]@@^^^//]]]//]]]/@^^^//]]]//]]]/@^^^]/]]]//]]]/./].@@....@^^^@.@@@/]/@@@@@^@@.............",
"@(((@@___::(((::(((:(___(:(((::(((::(((::(((::(((:..........@___@.:(@:(:@:(@:(:@.............",
"(@@@(_@@@(_@@@(_@@@((@@@((@@@_(@@@__@@@((@@@((@@@(.........._@@@_.:(@(@_@:(@(@_@.............",
"(@@@(_@@@(_@@@(_@@@((@@@((@@@_(@@@__@@@((@@@((@@@(.........._@@@_.@@@(@_@@@@(@_@.............",
":___:@___::(((:@(((::(((:((((::(((:@___::(((::(((:..........@___@.@@@:_@@@@@:(:@.............",
"(@@@(_@@@((@@@__@@@(_@@@(_@@@((@@@(_@@@((@@@(_@@@(.........._@@@_.@@@(@_@@@@(@_@.............",
"(@@@(_@@@((@@@__@@@(_@@@(_@@@((@@@(_@@@((@@@(_@@@(.@(.@@...._@@@_.@@@(@_@@@@(@_@.............",
"@(((@@___::(((::(((:@___::(((::(((:@___(:(((::(((:.:(.@@....@___@.@@@:(:@@@@@_@@.............",
".............................................................................................",
"$%%%$@$%%%$@$&&&$@@&&&@$%%%$@$%%%$@$&&&$@@&&&@$%%%$@@%%%@@$&&&$@@&&&@@&&&*@*===*.............",
"%@@@&@%@@@%@%@@@%@&@@@&%@@@&@%@@@%@%@@@%@&@@@&%@@@&@%@@@%@%@@@%@&@@@&&@@@=@&@@@=.............",
"%@@@&@%@@@%@%@@@%@&@@@&%@@@&@%@@@%@%@@@%@&@@@&%@@@&@%@@@%@%%@@%@&@@@&&@@@=@&@@@=.............",
"$&&&@@$%%%$@$&&&$@@&&&@$&&&$@$%%%$@$&&&$@@&&&@$%%%@@$%%%$@$&%&$@@&&&@@&&&*@*===*.............",
"%@@@&@%@@@&@%@@@%@&@@@&%@@@%@%@@@&@%@@@%@&@@@&%@@@&@%@@@%@%@@%%@&@@@&&@@@=@=@@@&.............",
"%@@@&@%@@@&@%@@@%@&@@@&%@@@%@%@@@&@%@@@%@&@@@&%@@@&@%@@@%@%@@@%@&@@@&&@@@=@=@@@&.............",
"$%%%$@$&&&@@$%%%$@@&&&@$%%%$@$&&&@@$%%%$@@&&&@$&&&@@$&&&$@$&&&$@@&&&@@&&&*@*===*.............",
"/]]]/@/]]]/@/^^^/@@^^^@/]]]/@/]]]/@/^^^/@@^^^@/]]]/@@]]]@@/^^^/@@^^^@@^^^/@/]]]/.............",
"]@@@^@]@@@]@]@@@]@^@@@^]@@@^@]@@@]@]@@@]@^@@@^]@@@^@]@@@]@]@@@]@^@@@^^@@@]@^@@@].............",
"]@@@^@]@@@]@]@@@]@^@@@^]@@@^@]@@@]@]@@@]@^@@@^]@@@^@]@@@]@]]@@]@^@@@^^@@@]@^@@@].............",
"/^^^@@/]]]/@/^^^/@@^^^@/^^^/@/]]]/@/^^^/@@^^^@/]]]@@/]]]/@/^]^/@@^^^@@^^^/@/]]]/.............",
"]@@@^@]@@@^@]@@@]@^@@@^]@@@]@]@@@^@]@@@]@^@@@^]@@@^@]@@@]@]@@]]@^@@@^^@@@]@]@@@^.............",
"]@@@^@]@@@^@]@@@]@^@@@^]@@@]@]@@@^@]@@@]@^@@@^]@@@^@]@@@]@]@@@]@^@@@^^@@@]@]@@@^.............",
"/]]]/@/^^^@@/]]]/@@^^^@/]]]/@/^^^@@/]]]/@@^^^@/^^^@@/^^^/@/^^^/@@^^^@@^^^/@/]]]/.............",
":(((:@:(((:@:___:@@___@:(((:@:(((:@:___:@@___@:(((:@@(((@@:___:@@___@@___:@:(((:.............",
"(@@@_@(@@@(@(@@@(@_@@@_(@@@_@(@@@(@(@@@(@_@@@_(@@@_@(@@@(@(@@@(@_@@@__@@@(@_@@@(.............",
"(@@@_@(@@@(@(@@@(@_@@@_(@@@_@(@@@(@(@@@(@_@@@_(@@@_@(@@@(@((@@(@_@@@__@@@(@_@@@(.............",
":___@@:(((:@:___:@@___@:___:@:(((:@:___:@@___@:(((@@:(((:@:_(_:@@___@@___:@:(((:.............",
"(@@@_@(@@@_@(@@@(@_@@@_(@@@(@(@@@_@(@@@(@_@@@_(@@@_@(@@@(@(@@((@_@@@__@@@(@(@@@_.............",
"(@@@_@(@@@_@(@@@(@_@@@_(@@@(@(@@@_@(@@@(@_@@@_(@@@_@(@@@(@(@@@(@_@@@__@@@(@(@@@_.............",
":(((:@:___@@:(((:@@___@:(((:@:___@@:(((:@@___@:___@@:___:@:___:@@___@@___:@:(((:.............",
".............................................................................................",
"<<[}|1234567890abcdefghijklmnopqrstuvwxyzABCDEFGHIJKLMNOP{...................................",
"<<[}|1234567890abcdefghijklmnopqrstuvwxyzABCDEFGHIJKLMNOP{...................................",
"<<[}|1234567890abcdefghijklmnopqrstuvwxyzABCDEFGHIJKLMNOP{...................................",
"<<[}|1234567890abcdefghijklmnopqrstuvwxyzABCDEFGHIJKLMNOP{...................................",
"<<[}|1234567890abcdefghijklmnopqrstuvwxyzABCDEFGHIJKLMNOP{...................................",
"<<[}|1234567890abcdefghijklmnopqrstuvwxyzABCDEFGHIJKLMNOP{...................................",
".............................................................................................",
"@@@@@@@@@@@@@@@@@@@@@@@@@@@@@@@@@@@@@@@@@@@@@@@@@@@@@@@@@@@..................................",
"@@@@@@@@@@@@@@@@@@@@@@@@@@@@@@@@@@@@@@@@@@@@@@@@@@@@@@@@@@@..................................",
"@@@@@@@@@@@@@@@@@@@@@@@@@@@@@@@@@@@@@@@@@@@@@@@@@@@@@@@@@@@..................................",
"@@@@@@@@@@@@@@@@@@@@@@@@@@@@@@@@@@@@@@@@@@@@@@@@@@@@@@@@@@@..................................",
"@@@@@@@@@@@@@@@@@@@@@@@@@@@@@@@@@@@@@@@@@@@@@@@@@@@@@@@@@@@..................................",
"@@@@@@@@@@@@@@@@@@@@@@@@@@@@@@@@@@@@@@@@@@@@@@@@@@@@@@@@@@@.................................."};
