/* XPM */
static char * wmtempnv_master2_xpm[] = {
"93 122 80 1",
" 	c None",
".	c #0000FF",
"+	c #000000",
"@	c #202020",
"#	c #C7C7C7",
"$	c #20B6AE",
"%	c #007D71",
"&	c #004941",
"*	c #0A3F00",
"=	c #660000",
"-	c #20B2AE",
";	c #188A86",
">	c #177700",
",	c #27B500",
"'	c #A50000",
")	c #C90000",
"!	c #3FFF00",
"~	c #FF0000",
"{	c #E00000",
"]	c #440000",
"^	c #A80000",
"/	c #FF8200",
"(	c #542A00",
"_	c #A85500",
":	c #00FF0F",
"<	c #04FA0F",
"[	c #09F50F",
"}	c #0DF10F",
"|	c #12EC0E",
"1	c #16E80E",
"2	c #1BE30E",
"3	c #1FDF0D",
"4	c #24DA0D",
"5	c #28D60D",
"6	c #2DD10D",
"7	c #32CC0C",
"8	c #36C80C",
"9	c #3BC30C",
"0	c #3FBF0B",
"a	c #44BA0B",
"b	c #48B60B",
"c	c #4DB10B",
"d	c #51AD0A",
"e	c #56A80A",
"f	c #5BA30A",
"g	c #5F9F09",
"h	c #649A09",
"i	c #689609",
"j	c #6D9109",
"k	c #718D08",
"l	c #768808",
"m	c #7A8408",
"n	c #7F7F07",
"o	c #847A07",
"p	c #887607",
"q	c #8D7107",
"r	c #916D06",
"s	c #966806",
"t	c #9A6406",
"u	c #9F5F05",
"v	c #A35B05",
"w	c #A85605",
"x	c #AD5105",
"y	c #B14D04",
"z	c #B64804",
"A	c #BA4404",
"B	c #BF3F03",
"C	c #C33B03",
"D	c #C83603",
"E	c #CC3203",
"F	c #D12D02",
"G	c #D62802",
"H	c #DA2402",
"I	c #DF1F01",
"J	c #E31B01",
"K	c #E81601",
"L	c #EC1201",
"M	c #F10D00",
"N	c #F50900",
"O	c #FA0400",
"................................................................+............................",
"................................................................+............................",
"................................................................+............................",
"................................................................+............................",
"................................................................+............................",
"..++++++++++++++++++++++++++++++++++++++++++++++++++++++++++++..+............................",
"..+@@@@@@@@@@@@@@@@@@@@@@@@@@@@@@@@@@@@@@@@@@@@@@@@@@@@@@@@@@#..+............................",
"..+@@$$$@@%$$$@@%&&&%@@&&&%@@@@@&&&@@@@&&&@@@@&&&@@@$@@@$$$@@#..+............................",
"..+@$@@@$@$@@@$@$@@@$@&@@@$@@@@&@@@&@@&@@@&@@&@@@&@$@$@$@@@$@#..+............................",
"..+@$@@@&@$@@@$@$@@@$@&@@@$@@@@&@@@&@@&@@@&@@&@@@&@@$@@$@@@&@#..+............................",
"..+@%&&&@@%$$$@@%&&&%@@&&&%@@@@@&&&@@@@&&&@@@@&&&@@@@@@%&&&@@#..+............................",
"..+@$@@@&@$@@@&@$@@@$@&@@@$@@@@&@@@&@@&@@@&@@&@@@&@@@@@$@@@&@#..+............................",
"..+@$@@@$@$@@@&@$@@@$@&@@@$@@@@&@@@&@@&@@@&@@&@@@&@@@@@$@@@$@#..+............................",
"..+@@$$$@@%&&&@@%$$$%@@&&&%@@@@@&&&@@@@&&&@@@@&&&@@@@@@@$$$@@#..+............................",
"..+@@@@@@@@@@@@@@@@@@@@@@@@@@@@@@@@@@@@@@@@@@@@@@@@@@@@@@@@@@#..+............................",
"..+@@@@@@@@@@@@@@@@@@@@@@@@@@@@@@@@@@@@@@@@@@@@@@@@@@@@@@@@@@#..+............................",
"..############################################################..+............................",
"................................................................+............................",
"................................................................+............................",
"..++++++++++++++++++++++++++++++++++++++++++++++++++++++++++++..+............................",
"..+@@@@@@@@@@@@@@@@@@@@@@@@@@@@@@@@@@@@@@@@@@@@@@@@@@@@@@@@@@#..+............................",
"..+@@$$$@@%$$$@@%&&&%@%$$$%@@@@@&&&@@@@&&&@@@@&&&@@@$@@@$$$@@#..+............................",
"..+@$@@@$@$@@@$@$@@@$@&@@@$@@@@&@@@&@@&@@@&@@&@@@&@$@$@$@@@$@#..+............................",
"..+@$@@@&@$@@@$@$@@@$@&@@@$@@@@&@@@&@@&@@@&@@&@@@&@@$@@$@@@&@#..+............................",
"..+@%&&&@@%$$$@@%&&&%@%$$$%@@@@@&&&@@@@&&&@@@@&&&@@@@@@%&&&@@#..+............................",
"..+@$@@@&@$@@@&@$@@@$@$@@@&@@@@&@@@&@@&@@@&@@&@@@&@@@@@$@@@&@#..+............................",
"..+@$@@@$@$@@@&@$@@@$@$@@@&@@@@&@@@&@@&@@@&@@&@@@&@@@@@$@@@$@#..+............................",
"..+@@$$$@@%&&&@@@$$$@@%$$$%@@@@@&&&@@@@&&&@@@@&&&@@@@@@@$$$@@#..+............................",
"..+@@@@@@@@@@@@@@@@@@@@@@@@@@@@@@@@@@@@@@@@@@@@@@@@@@@@@@@@@@#..+............................",
"..+@@@@@@@@@@@@@@@@@@@@@@@@@@@@@@@@@@@@@@@@@@@@@@@@@@@@@@@@@@#..+............................",
"..############################################################..+............................",
"................................................................+............................",
"................................................................+............................",
"..++++++++++++++++++++++++++++++++++++++++++++++++++++++++++++..+............................",
"..+@@@@@@@@@@@@@@@@@@@@@@@@@@@@@@@@@@@@@@@@@@@@@@@@@@@@@@@@@@#..+............................",
"..+@@$$$%@%$$$@@%&&&%@@&&&@@@@@@&&&@@@@&&&@@@@&&&@@@$@@@$$$@@#..+............................",
"..+@$@@@&@$@@@$@$@@@$@&@@@&@@@@&@@@&@@&@@@&@@&@@@&@$@$@$@@@$@#..+............................",
"..+@$@@@&@$@@@$@$@@@$@&@@@&@@@@&@@@&@@&@@@&@@&@@@&@@$@@$@@@&@#..+............................",
"..+@%&&$$@%$$$@@%&&&%@@&&&@@@@@@&&&@@@@&&&@@@@&&&@@@@@@%&&&@@#..+............................",
"..+@$@@@$@$@@@&@$@@@$@&@@@&@@@@&@@@&@@&@@@&@@&@@@&@@@@@$@@@&@#..+............................",
"..+@$@@@$@$@@@&@$@@@$@&@@@&@@@@&@@@&@@&@@@&@@&@@@&@@@@@$@@@$@#..+............................",
"..+@@$$$@@%&&&@@@$$$@@@&&&@@@@@@&&&@@@@&&&@@@@&&&@@@@@@@$$$@@#..+............................",
"..+@@@@@@@@@@@@@@@@@@@@@@@@@@@@@@@@@@@@@@@@@@@@@@@@@@@@@@@@@@#..+............................",
"..+@@@@@@@@@@@@@@@@@@@@@@@@@@@@@@@@@@@@@@@@@@@@@@@@@@@@@@@@@@#..+............................",
"..############################################################..+............................",
"................................................................+............................",
"................................................................+............................",
"..++++++++++++++++++++++++++++++++++++++++++++++++++++++++++++..+............................",
"..+@@@@@@@@@@@@@@@@@@@@@@@@@@@@@@@@@@@@@@@@@@@@@@@@@@@@@@@@@@#..+............................",
"..+@@@&&&@@@&&&@@@&&&@@@&&&@@@@@@@&&&@@@@&&&@@@@&&&@@@@&&&@@@#..+............................",
"..+@@&@@@&@&@@@&@&@@@&@&@@@&@@@@@&@@@&@@&@@@&@@&@@@&@@&@@@&@@#..+............................",
"..+@@&@@@&@&@@@&@&@@@&@&@@@&@@@@@&@@@&@@&@@@&@@&@@@&@@&@@@&@@#..+............................",
"..+@@@&&&@@@&&&@@@&&&@@@&&&@@@@@@@&&&@@@@&&&@@@@&&&@@@@&&&@@@#..+............................",
"..+@@&@@@&@&@@@&@&@@@&@&@@@&@@@@@&@@@&@@&@@@&@@&@@@&@@&@@@&@@#..+............................",
"..+@@&@@@&@&@@@&@&@@@&@&@@@&@@@@@&@@@&@@&@@@&@@&@@@&@@&@@@&@@#..+............................",
"..+@@@&&&@@@&&&@@@&&&@@@&&&@@@@@@@&&&@@@@&&&@@@@&&&@@@@&&&@@@#..+............................",
"..+@@@@@@@@@@@@@@@@@@@@@@@@@@@@@@@@@@@@@@@@@@@@@@@@@@@@@@@@@@#..+............................",
"..+@@@@@@@@@@@@@@@@@@@@@@@@@@@@@@@@@@@@@@@@@@@@@@@@@@@@@@@@@@#..+............................",
"..############################################################..+............................",
"................................................................+............................",
"................................................................+............................",
"................................................................+............................",
"................................................................+............................",
"................................................................+............................",
"@@@@@@@@@@@@@@@@@@@@@@@@@@@@@@@@@@@@@@@@@@@@@@@@@@@***@@===@@@@@@.@@@@@@@@@@@@@@@@@@@@@@@@@..",
"@---@@&&&;;---;;---;-&&&-;---;;---;;---;;---;;---;*>,>*=')'=@&&&@.@$@@@$$$@@%$%@%&&&%@@---@..",
"-@@@-&@@@-&@@@-&@@@--@@@--@@@&-@@@&&@@@--@@@--@@@-*,!,*=)~)=&@@@&.$@$@$@@@$@$@&@$@@@$@-@@@-..",
"-@@@-&@@@-&@@@-&@@@--@@@--@@@&-@@@&&@@@--@@@--@@@-*>,>*=')'=&@@@&.@$@@$@@@&@$@&@$@@@$@-@@@-..",
";&&&;@&&&;;---;@---;;---;----;;---;@&&&;;---;;---;@***@@===@@&&&@.@@@@%&&&@@%$%@%&&&%@;&&&;..",
"-@@@-&@@@--@@@&&@@@-&@@@-&@@@--@@@-&@@@--@@@-&@@@-..........&@@@&.@@@@$@@@&@$@&@$@@@$@-@@@-..",
"-@@@-&@@@--@@@&&@@@-&@@@-&@@@--@@@-&@@@--@@@-&@@@-.@-.@@....&@@@&.@@@@$@@@$@$@&@%$@$%@-@@@-..",
"@---@@&&&;;---;;---;@&&&;;---;;---;@&&&-;---;;---;.;-.@@....@&&&@.@@@@@$$$@@@&@@@%$%@@@---@..",
"@{{{@@]]]^^{{{^^{{{^{]]]{^{{{^^{{{^^{{{^^{{{^^{{{^..........@]]]@.@{@@@{{{@@^{^@.............",
"{@@@{]@@@{]@@@{]@@@{{@@@{{@@@]{@@@]]@@@{{@@@{{@@@{..........]@@@].{@{@{@@@{@{@]@.............",
"{@@@{]@@@{]@@@{]@@@{{@@@{{@@@]{@@@]]@@@{{@@@{{@@@{..........]@@@].@{@@{@@@]@{@]@.............",
"^]]]^@]]]^^{{{^@{{{^^{{{^{{{{^^{{{^@]]]^^{{{^^{{{^..........@]]]@.@@@@^]]]@@^{^@.............",
"{@@@{]@@@{{@@@]]@@@{]@@@{]@@@{{@@@{]@@@{{@@@{]@@@{..........]@@@].@@@@{@@@]@{@]@.............",
"{@@@{]@@@{{@@@]]@@@{]@@@{]@@@{{@@@{]@@@{{@@@{]@@@{.@{.@@....]@@@].@@@@{@@@{@{@]@.............",
"@{{{@@]]]^^{{{^^{{{^@]]]^^{{{^^{{{^@]]]{^{{{^^{{{^.^{.@@....@]]]@.@@@@@{{{@@@]@@.............",
"@///@@(((__///__///_/(((/_///__///__///__///__///_..........@(((@.@/@@@///@@_/_@.............",
"/@@@/(@@@/(@@@/(@@@//@@@//@@@(/@@@((@@@//@@@//@@@/..........(@@@(./@/@/@@@/@/@(@.............",
"/@@@/(@@@/(@@@/(@@@//@@@//@@@(/@@@((@@@//@@@//@@@/..........(@@@(.@/@@/@@@(@/@(@.............",
"_(((_@(((__///_@///__///_////__///_@(((__///__///_..........@(((@.@@@@_(((@@_/_@.............",
"/@@@/(@@@//@@@((@@@/(@@@/(@@@//@@@/(@@@//@@@/(@@@/..........(@@@(.@@@@/@@@(@/@(@.............",
"/@@@/(@@@//@@@((@@@/(@@@/(@@@//@@@/(@@@//@@@/(@@@/.@/.@@....(@@@(.@@@@/@@@/@/@(@.............",
"@///@@(((__///__///_@(((__///__///_@(((/_///__///_._/.@@....@(((@.@@@@@///@@@(@@.............",
".............................................................................................",
"@$$$@@%$$$@@%&&&%@@&&&@@$$$%@%$$$@@%&&&%@@&&&@%$$$%@@$$$@@%&&&%@@&&&@@&&&;@;---;.............",
"$@@@$@$@@@$@$@@@$@&@@@&$@@@&@$@@@$@$@@@$@&@@@&$@@@&@$@@@$@$@@@$@&@@@&&@@@-@&@@@-.............",
"$@@@&@$@@@$@$@@@$@&@@@&$@@@&@$@@@$@$@@@$@&@@@&$@@@&@$@@@$@$$@@$@&@@@&&@@@-@&@@@-.............",
"%&&&@@%$$$@@%&&&%@@&&&@%&&$$@%$$$@@%&&&%@@&&&@%$$$@@%$$$%@%&$&%@@&&&@@&&&;@;---;.............",
"$@@@&@$@@@&@$@@@$@&@@@&$@@@$@$@@@&@$@@@$@&@@@&$@@@&@$@@@$@$@@$$@&@@@&&@@@-@-@@@&.............",
"$@@@$@$@@@&@$@@@$@&@@@&$@@@$@$@@@&@$@@@$@&@@@&$@@@&@$@@@$@$@@@$@&@@@&&@@@-@-@@@&.............",
"@$$$@@%&&&@@%$$$%@@&&&@@$$$@@%&&&@@@$$$@@@&&&@%&&&@@%&&&%@%&&&%@@&&&@@&&&;@;---;.............",
"@{{{@@^{{{@@^]]]^@@]]]@@{{{^@^{{{@@^]]]^@@]]]@^{{{^@@{{{@@^]]]^@@]]]@@]]]^@^{{{^.............",
"{@@@]@{@@@{@{@@@{@]@@@]{@@@]@{@@@{@{@@@{@]@@@]{@@@]@{@@@{@{@@@{@]@@@]]@@@{@]@@@{.............",
"{@@@]@{@@@{@{@@@{@]@@@]{@@@]@{@@@{@{@@@{@]@@@]{@@@]@{@@@{@{{@@{@]@@@]]@@@{@]@@@{.............",
"^]]]@@^{{{@@^]]]^@@]]]@^]]{{@^{{{@@^]]]^@@]]]@^{{{@@^{{{^@^]{]^@@]]]@@]]]^@^{{{^.............",
"{@@@]@{@@@]@{@@@{@]@@@]{@@@{@{@@@]@{@@@{@]@@@]{@@@]@{@@@{@{@@{{@]@@@]]@@@{@{@@@].............",
"{@@@]@{@@@]@{@@@{@]@@@]{@@@{@{@@@]@{@@@{@]@@@]{@@@]@{@@@{@{@@@{@]@@@]]@@@{@{@@@].............",
"@{{{@@^]]]@@@{{{@@@]]]@@{{{@@^]]]@@@{{{@@@]]]@^]]]@@^]]]^@^]]]^@@]]]@@]]]^@^{{{^.............",
"@///@@_///@@_(((_@@(((@@///_@_///@@_(((_@@(((@_///_@@///@@_(((_@@(((@@(((_@_///_.............",
"/@@@(@/@@@/@/@@@/@(@@@(/@@@(@/@@@/@/@@@/@(@@@(/@@@(@/@@@/@/@@@/@(@@@((@@@/@(@@@/.............",
"/@@@(@/@@@/@/@@@/@(@@@(/@@@(@/@@@/@/@@@/@(@@@(/@@@(@/@@@/@//@@/@(@@@((@@@/@(@@@/.............",
"_(((@@_///@@_(((_@@(((@_((//@_///@@_(((_@@(((@_///@@_///_@_(/(_@@(((@@(((_@_///_.............",
"/@@@(@/@@@(@/@@@/@(@@@(/@@@/@/@@@(@/@@@/@(@@@(/@@@(@/@@@/@/@@//@(@@@((@@@/@/@@@(.............",
"/@@@(@/@@@(@/@@@/@(@@@(/@@@/@/@@@(@/@@@/@(@@@(/@@@(@/@@@/@/@@@/@(@@@((@@@/@/@@@(.............",
"@///@@_(((@@@///@@@(((@@///@@_(((@@@///@@@(((@_(((@@_(((_@_(((_@@(((@@(((_@_///_.............",
".............................................................................................",
"::<[}|1234567890abcdefghijklmnopqrstuvwxyzABCDEFGHIJKLMNO~...................................",
"::<[}|1234567890abcdefghijklmnopqrstuvwxyzABCDEFGHIJKLMNO~...................................",
"::<[}|1234567890abcdefghijklmnopqrstuvwxyzABCDEFGHIJKLMNO~...................................",
"::<[}|1234567890abcdefghijklmnopqrstuvwxyzABCDEFGHIJKLMNO~...................................",
"::<[}|1234567890abcdefghijklmnopqrstuvwxyzABCDEFGHIJKLMNO~...................................",
"::<[}|1234567890abcdefghijklmnopqrstuvwxyzABCDEFGHIJKLMNO~...................................",
".............................................................................................",
"@@@@@@@@@@@@@@@@@@@@@@@@@@@@@@@@@@@@@@@@@@@@@@@@@@@@@@@@@@@..................................",
"@@@@@@@@@@@@@@@@@@@@@@@@@@@@@@@@@@@@@@@@@@@@@@@@@@@@@@@@@@@..................................",
"@@@@@@@@@@@@@@@@@@@@@@@@@@@@@@@@@@@@@@@@@@@@@@@@@@@@@@@@@@@..................................",
"@@@@@@@@@@@@@@@@@@@@@@@@@@@@@@@@@@@@@@@@@@@@@@@@@@@@@@@@@@@..................................",
"@@@@@@@@@@@@@@@@@@@@@@@@@@@@@@@@@@@@@@@@@@@@@@@@@@@@@@@@@@@..................................",
"@@@@@@@@@@@@@@@@@@@@@@@@@@@@@@@@@@@@@@@@@@@@@@@@@@@@@@@@@@@.................................."};
